<svg width="307" height="50" fill="none" xmlns="http://www.w3.org/2000/svg"><path d="M37.171 45.544c-.768.512-1.813 1.088-3.136 1.728-1.322.64-2.88 1.173-4.672 1.6-1.75.427-3.67.64-5.76.64-3.584-.043-6.826-.683-9.728-1.92-2.858-1.237-5.29-2.923-7.296-5.056a23.246 23.246 0 0 1-4.672-7.36c-1.066-2.816-1.6-5.803-1.6-8.96 0-3.456.555-6.635 1.664-9.536 1.152-2.944 2.752-5.483 4.8-7.616a21.505 21.505 0 0 1 7.232-5.056c2.816-1.195 5.888-1.792 9.216-1.792 2.774 0 5.29.384 7.552 1.152 2.262.725 4.203 1.6 5.824 2.624l-2.496 5.76c-1.28-.853-2.837-1.664-4.672-2.432-1.792-.768-3.797-1.152-6.016-1.152-2.261 0-4.394.448-6.4 1.344a16.565 16.565 0 0 0-5.312 3.776c-1.536 1.621-2.752 3.52-3.648 5.696-.853 2.133-1.28 4.437-1.28 6.912 0 2.517.384 4.864 1.152 7.04.81 2.133 1.942 3.99 3.392 5.568 1.494 1.579 3.286 2.816 5.376 3.712 2.09.896 4.438 1.344 7.04 1.344 2.347 0 4.438-.363 6.272-1.088 1.835-.725 3.35-1.536 4.544-2.432l2.624 5.504ZM59.913 2.728c2.346 0 4.501.32 6.464.96 2.005.597 3.733 1.515 5.184 2.752 1.493 1.195 2.645 2.688 3.456 4.48.853 1.75 1.28 3.797 1.28 6.144 0 1.835-.278 3.627-.832 5.376-.512 1.75-1.387 3.35-2.624 4.8-1.238 1.408-2.859 2.56-4.864 3.456-1.963.853-4.395 1.28-7.296 1.28h-6.848V49h-6.208V2.728h12.288Zm.64 23.296c1.834 0 3.35-.277 4.544-.832 1.237-.555 2.197-1.259 2.88-2.112a8.789 8.789 0 0 0 1.472-2.88c.298-1.024.448-1.984.448-2.88 0-.939-.17-1.899-.512-2.88a7.602 7.602 0 0 0-1.536-2.816c-.683-.853-1.6-1.557-2.752-2.112-1.11-.555-2.475-.832-4.096-.832h-7.168v17.344h6.72Zm7.616 3.52L80.265 49h-7.168L60.809 29.736l7.36-.192ZM85.204 49 105.428.808h.384L125.972 49h-7.104l-15.104-38.464 4.416-2.88L91.284 49h-6.08Zm11.84-17.536h17.216l2.048 5.376H95.252l1.792-5.376Zm37.643-28.736h27.456V8.68h-21.248v14.784h18.624v5.888h-18.624V49h-6.208V2.728Zm34.296 0h30.72V8.68h-12.416V49h-6.208V8.68h-12.096V2.728Zm40.579 0h6.208V49h-6.208V2.728Zm19.5 0h27.456V8.68H235.27v14.784h18.624v5.888H235.27V49h-6.208V2.728Zm49.976 30.848L261.886 2.728h7.616l13.76 25.536-1.92.128 13.632-25.664h7.552l-17.28 30.848V49h-6.208V33.576Z" fill="#000"/><path d="M299.895 45.608c0-.939.341-1.728 1.024-2.368.725-.683 1.514-1.024 2.368-1.024.768 0 1.493.341 2.176 1.024.725.64 1.088 1.43 1.088 2.368 0 1.024-.363 1.856-1.088 2.496-.683.597-1.408.896-2.176.896-.854 0-1.643-.299-2.368-.896-.683-.64-1.024-1.472-1.024-2.496Z" fill="#8C5E58"/></svg>